<svg xmlns="http://www.w3.org/2000/svg" height="20" viewBox="0 -960 960 960" width="20"><path d="M346-313.5h276.5L529-438l-87 106.5-45-48-51 66ZM202.28-201q-20.218 0-34.749-14.531Q153-230.062 153-250.363v-363.774q0-20.301 14.531-34.832Q182.062-663.5 202.5-663.5h110l71.068-95.5h192.978l70.954 95.5h110q21.138 0 35.319 14.531Q807-634.438 807-614.137v363.774q0 20.301-14.181 34.832Q778.638-201 757.72-201H202.28Zm.22-17.5h555q14 0 23-9t9-23V-614q0-13.5-9-22.75t-23-9.25H636.713l-72.552-95.5H396.148L323.5-646h-121q-14 0-23 9.25t-9 22.75v363.5q0 14 9 23t23 9Zm277.5-215Z"/></svg>