<svg xmlns="http://www.w3.org/2000/svg" height="20" viewBox="0 -960 960 960" width="20"><path d="M480-306.5q55 0 90.5-36.229T606-432.5q0-51.5-35.5-88.5T480-558q-55 0-90.25 37t-35.25 89q0 53.042 35.25 89.271T480-306.5Zm-.056-17.5q-48.148 0-78.046-31.38Q372-386.76 372-433.296q0-45.696 29.927-76.45 29.928-30.754 78.119-30.754t78.322 30.754q30.132 30.754 30.132 76.45 0 46.536-30.204 77.916Q528.092-324 479.944-324ZM202.28-201q-20.218 0-34.749-14.531Q153-230.062 153-250.363v-363.774q0-20.301 14.531-34.832Q182.062-663.5 202.5-663.5h110l71.068-95.5h192.978l70.954 95.5h110q21.138 0 35.319 14.531Q807-634.438 807-614.137v363.774q0 20.301-14.181 34.832Q778.638-201 757.72-201H202.28Zm.22-17.5h555q14 0 23-9t9-23V-614q0-13.5-9-22.75t-23-9.25H636.713l-72.552-95.5H396.148L323.5-646h-121q-14 0-23 9.25t-9 22.75v363.5q0 14 9 23t23 9Zm277.5-215Z"/></svg>