<svg xmlns="http://www.w3.org/2000/svg" height="20" viewBox="0 -960 960 960" width="20"><path d="M202.28-296q-20.917 0-35.099-14.266Q153-324.531 153-345.832v-268.836q0-20.77 14.181-35.301Q181.363-664.5 202.28-664.5h555.44q20.918 0 35.099 14.531Q807-635.438 807-614.668v268.836q0 21.301-14.181 35.566Q778.638-296 757.72-296H202.28Zm.22-17.5h555q12 0 22-9.75t10-22.25V-615q0-12-10-22t-22-10h-555q-12 0-22 10t-10 22v269.5q0 12.5 10 22.25t22 9.75Zm116-72.5H336v-85.5h85.5V-489H336v-85.5h-17.5v85.5h-85v17.5h85v85.5Zm257.235-12q13.53 0 23.147-9.368 9.618-9.367 9.618-22.75 0-13.382-9.471-22.882-9.47-9.5-23-9.5-13.529 0-22.779 9.29-9.25 9.291-9.25 22.563 0 13.48 9.103 23.064Q562.206-398 575.735-398Zm116-100q13.53 0 23.147-9.103 9.618-9.103 9.618-22.632 0-13.53-9.471-23.147-9.47-9.618-23-9.618-13.529 0-22.779 9.471-9.25 9.47-9.25 23 0 13.529 9.103 22.779t22.632 9.25ZM170.5-313.5V-647v333.5Z"/></svg>