<svg xmlns="http://www.w3.org/2000/svg" height="20" viewBox="0 -960 960 960" width="20"><path d="M188-296q-15 0-27.5-15.5t-8.5-25l58.5-301q5-21.5 22.102-36 17.103-14.5 40.863-14.5h413.07q23.76 0 40.863 14.5 17.102 14.5 22.102 37l58.5 301q4 9.5-9 24.5t-28 15q-5.053 0-10.526.25-5.474.25-9.005-3.25l-111.187-92H319.718l-111.187 92q-3.531 3.5-9.505 3.25Q193.053-296 188-296Zm13.5-21.5 112.887-91H646l112.983 90.983Q760-316.5 769.22-312.5q9.78 0 16.03-7.5 6.25-7.5 4.25-17.5l-56.361-294.457q-3.032-17.232-16.963-27.887Q702.246-670.5 686.5-670.5H273.576q-15.722 0-29.884 10.643Q229.53-649.213 227-632l-56.478 294.414Q168.5-327.5 174.135-320q5.636 7.5 14.865 7.5 5 0 12.5-5Zm456.789-149q9.711 0 17.711-7.789 8-7.79 8-17.5 0-9.711-7.789-17.711-7.79-8-17.5-8-9.711 0-17.711 7.789-8 7.79-8 17.5 0 9.711 7.789 17.711 7.79 8 17.5 8Zm-71.5-95q9.711 0 17.711-7.789 8-7.79 8-17.5 0-9.711-7.789-17.711-7.79-8-17.5-8-9.711 0-17.711 7.789-8 7.79-8 17.5 0 9.711 7.789 17.711 7.79 8 17.5 8ZM354-473h14.5v-59.5H428v-14h-59.5V-606H354v59.5h-59.5v14H354v59.5Zm127-7Z"/></svg>