<svg xmlns="http://www.w3.org/2000/svg" height="20" viewBox="0 -960 960 960" width="20"><path d="M480.111-153q-97.611 0-164.861-67.171Q248-287.343 248-385v-186q0-97.657 67.139-164.829Q382.278-803 479.889-803t164.861 67.171Q712-668.657 712-571v186q0 97.657-67.139 164.829Q577.722-153 480.111-153ZM489-595h203.5q-8-80.896-66-134.448Q568.5-783 489-785.5V-595Zm-221.5 0h204v-190.5q-80 1.5-138 55.552T267.5-595Zm212.413 424.5q88.982 0 151.785-62.741Q694.5-295.982 694.5-385v-192.5h-429V-385q0 89.018 62.716 151.759Q390.932-170.5 479.913-170.5Zm.087-403Zm9-21.5Zm-17.5 0Zm8.5 21.5Z"/></svg>