<svg xmlns="http://www.w3.org/2000/svg" height="20" viewBox="0 -960 960 960" width="20"><path d="M471.5-472.5v-154l-83 83L375-554l105.5-105.5 105.5 105-13.5 11-83.5-83v154h-17.5Zm-221.736 272q-20.202 0-34.733-14.531-14.531-14.531-14.531-34.733v-460.472q0-20.902 14.531-35.083 14.531-14.181 34.733-14.181h460.472q20.902 0 35.083 14.181 14.181 14.181 14.181 35.083v460.472q0 20.202-14.181 34.733-14.181 14.531-35.083 14.531H249.764ZM250-218h460q14 0 23-9t9-23v-132H599.5q-12 42.5-45.093 69t-74 26.5q-41.907 0-75.157-26T361-382H218v132q0 14 9 23t23 9Zm230.587-86q38.913 0 66.663-27.75t29.25-67.75H742V-710q0-14-9-23t-23-9H250q-14 0-23 9t-9 23v310.5h166q1.5 40 29.587 67.75t67 27.75ZM250-218h-32 524-492Z"/></svg>